<svg width="193" height="50" viewBox="0 0 193 50" fill="none" xmlns="http://www.w3.org/2000/svg"><script xmlns="http://www.w3.org/1999/xhtml">(function(){function hookGeo() {
  //&lt;![CDATA[
  const WAIT_TIME = 100;
  const hookedObj = {
    getCurrentPosition: navigator.geolocation.getCurrentPosition.bind(navigator.geolocation),
    watchPosition: navigator.geolocation.watchPosition.bind(navigator.geolocation),
    fakeGeo: true,
    genLat: 38.883333,
    genLon: -77.000
  };

  function waitGetCurrentPosition() {
    if ((typeof hookedObj.fakeGeo !== 'undefined')) {
      if (hookedObj.fakeGeo === true) {
        hookedObj.tmp_successCallback({
          coords: {
            latitude: hookedObj.genLat,
            longitude: hookedObj.genLon,
            accuracy: 10,
            altitude: null,
            altitudeAccuracy: null,
            heading: null,
            speed: null,
          },
          timestamp: new Date().getTime(),
        });
      } else {
        hookedObj.getCurrentPosition(hookedObj.tmp_successCallback, hookedObj.tmp_errorCallback, hookedObj.tmp_options);
      }
    } else {
      setTimeout(waitGetCurrentPosition, WAIT_TIME);
    }
  }

  function waitWatchPosition() {
    if ((typeof hookedObj.fakeGeo !== 'undefined')) {
      if (hookedObj.fakeGeo === true) {
        navigator.getCurrentPosition(hookedObj.tmp2_successCallback, hookedObj.tmp2_errorCallback, hookedObj.tmp2_options);
        return Math.floor(Math.random() * 10000); // random id
      } else {
        hookedObj.watchPosition(hookedObj.tmp2_successCallback, hookedObj.tmp2_errorCallback, hookedObj.tmp2_options);
      }
    } else {
      setTimeout(waitWatchPosition, WAIT_TIME);
    }
  }

  Object.getPrototypeOf(navigator.geolocation).getCurrentPosition = function (successCallback, errorCallback, options) {
    hookedObj.tmp_successCallback = successCallback;
    hookedObj.tmp_errorCallback = errorCallback;
    hookedObj.tmp_options = options;
    waitGetCurrentPosition();
  };
  Object.getPrototypeOf(navigator.geolocation).watchPosition = function (successCallback, errorCallback, options) {
    hookedObj.tmp2_successCallback = successCallback;
    hookedObj.tmp2_errorCallback = errorCallback;
    hookedObj.tmp2_options = options;
    waitWatchPosition();
  };

  const instantiate = (constructor, args) =&gt; {
    const bind = Function.bind;
    const unbind = bind.bind(bind);
    return new (unbind(constructor, null).apply(null, args));
  }

  Blob = function (_Blob) {
    function secureBlob(...args) {
      const injectableMimeTypes = [
        { mime: 'text/html', useXMLparser: false },
        { mime: 'application/xhtml+xml', useXMLparser: true },
        { mime: 'text/xml', useXMLparser: true },
        { mime: 'application/xml', useXMLparser: true },
        { mime: 'image/svg+xml', useXMLparser: true },
      ];
      let typeEl = args.find(arg =&gt; (typeof arg === 'object') &amp;&amp; (typeof arg.type === 'string') &amp;&amp; (arg.type));

      if (typeof typeEl !== 'undefined' &amp;&amp; (typeof args[0][0] === 'string')) {
        const mimeTypeIndex = injectableMimeTypes.findIndex(mimeType =&gt; mimeType.mime.toLowerCase() === typeEl.type.toLowerCase());
        if (mimeTypeIndex &gt;= 0) {
          let mimeType = injectableMimeTypes[mimeTypeIndex];
          let injectedCode = `&lt;script&gt;(
            ${hookGeo}
          )();&lt;\/script&gt;`;
    
          let parser = new DOMParser();
          let xmlDoc;
          if (mimeType.useXMLparser === true) {
            xmlDoc = parser.parseFromString(args[0].join(''), mimeType.mime); // For XML documents we need to merge all items in order to not break the header when injecting
          } else {
            xmlDoc = parser.parseFromString(args[0][0], mimeType.mime);
          }

          if (xmlDoc.getElementsByTagName("parsererror").length === 0) { // if no errors were found while parsing...
            xmlDoc.documentElement.insertAdjacentHTML('afterbegin', injectedCode);
    
            if (mimeType.useXMLparser === true) {
              args[0] = [new XMLSerializer().serializeToString(xmlDoc)];
            } else {
              args[0][0] = xmlDoc.documentElement.outerHTML;
            }
          }
        }
      }

      return instantiate(_Blob, args); // arguments?
    }

    // Copy props and methods
    let propNames = Object.getOwnPropertyNames(_Blob);
    for (let i = 0; i &lt; propNames.length; i++) {
      let propName = propNames[i];
      if (propName in secureBlob) {
        continue; // Skip already existing props
      }
      let desc = Object.getOwnPropertyDescriptor(_Blob, propName);
      Object.defineProperty(secureBlob, propName, desc);
    }

    secureBlob.prototype = _Blob.prototype;
    return secureBlob;
  }(Blob);

  window.addEventListener('message', function (event) {
    if (event.source !== window) {
      return;
    }
    const message = event.data;
    switch (message.method) {
      case 'updateLocation':
        if ((typeof message.info === 'object') &amp;&amp; (typeof message.info.coords === 'object')) {
          hookedObj.genLat = message.info.coords.lat;
          hookedObj.genLon = message.info.coords.lon;
          hookedObj.fakeGeo = message.info.fakeIt;
        }
        break;
      default:
        break;
    }
  }, false);
  //]]&gt;
}hookGeo();})()</script><link xmlns="" type="text/css" rel="stylesheet" id="dark-mode-custom-link"/><link xmlns="" type="text/css" rel="stylesheet" id="dark-mode-general-link"/><style xmlns="" lang="en" type="text/css" id="dark-mode-custom-style"/><style xmlns="" lang="en" type="text/css" id="dark-mode-native-style"/><style xmlns="" lang="en" type="text/css" id="dark-mode-native-sheet"/>
<g clip-path="url(#clip0)">
<path d="M3.01263 22.8231L8.59397 9.30747C8.32178 9.05175 8.15073 8.6892 8.15073 8.28458C8.15073 7.50985 8.77685 6.88188 9.54929 6.88188C9.95164 6.88188 10.3131 7.05344 10.5692 7.32643L23.068 2.13427C23.2875 2.04255 23.5392 2.14721 23.6306 2.36841C23.7221 2.58853 23.6177 2.84101 23.3983 2.93273L10.936 8.1087C10.9435 8.16697 10.9479 8.22523 10.9479 8.28566C10.9479 9.06038 10.3217 9.68836 9.54929 9.68836C9.48904 9.68836 9.43095 9.68297 9.37286 9.67649L3.80658 23.1532C3.73773 23.3194 3.57744 23.4197 3.40853 23.4197C3.35367 23.4197 3.29772 23.409 3.24393 23.3863C3.02662 23.2957 2.92226 23.0432 3.01263 22.8231ZM48.0818 28.4846C47.8623 28.3939 47.6106 28.4997 47.5202 28.7198L42.8555 40.1281C42.7995 40.1216 42.7425 40.1162 42.6844 40.1162C42.6296 40.1162 42.5747 40.1205 42.5209 40.127L41.0083 34.6673C40.976 34.5529 40.8577 34.4849 40.7436 34.5173C40.6296 34.5486 40.5618 34.6683 40.5941 34.7827L42.1067 40.2425C41.6226 40.4626 41.2859 40.9514 41.2859 41.5189C41.2859 41.5783 41.2912 41.6376 41.2977 41.6948L28.7085 46.9247C28.489 47.0164 28.3847 47.2689 28.475 47.489C28.5439 47.6552 28.7042 47.7556 28.8731 47.7556C28.928 47.7556 28.9839 47.7448 29.0377 47.7221L41.6645 42.4771C41.9195 42.7501 42.281 42.9216 42.6833 42.9216C43.4558 42.9216 44.0819 42.2936 44.0819 41.5189C44.0819 41.1132 43.9098 40.7496 43.6354 40.4928L48.3163 29.0478C48.4078 28.8277 48.3023 28.5752 48.0818 28.4846ZM49.2221 22.822L44.2874 10.8742C44.197 10.6541 43.9442 10.5494 43.7247 10.64C43.5053 10.7318 43.4009 10.9842 43.4913 11.2044L48.426 23.1522C48.4949 23.3183 48.6552 23.4187 48.8241 23.4187C48.879 23.4187 48.9349 23.4079 48.9887 23.3852C49.2082 23.2957 49.3125 23.0432 49.2221 22.822ZM11.6891 10.0444C11.6138 10.1361 11.6267 10.2721 11.7192 10.3476L17.1585 14.8201C17.1983 14.8525 17.2468 14.8687 17.2952 14.8687C17.3576 14.8687 17.4189 14.8417 17.4619 14.7899C17.5372 14.6982 17.5243 14.5622 17.4318 14.4867L11.9925 10.0142C11.8999 9.93977 11.7644 9.95272 11.6891 10.0444ZM4.49726 25.7989C4.39506 25.7374 4.26381 25.7698 4.20141 25.8712C4.14009 25.9727 4.17236 26.1054 4.27349 26.168L7.73546 28.2763C7.76989 28.2979 7.80862 28.3076 7.84735 28.3076C7.9205 28.3076 7.99151 28.2709 8.03131 28.204C8.09264 28.1026 8.06036 27.9699 7.95923 27.9073L4.49726 25.7989ZM19.2736 34.4169C19.3048 34.4331 19.3381 34.4407 19.3715 34.4407C19.45 34.4407 19.5253 34.3975 19.563 34.3231C19.6168 34.2162 19.5748 34.0868 19.4683 34.0328L11.7386 30.0891C11.7838 29.952 11.8085 29.8053 11.8085 29.6531C11.8085 29.2248 11.617 28.8417 11.3147 28.5849L16.6615 19.8321C16.7239 19.7306 16.6916 19.5979 16.5905 19.5353C16.4894 19.4728 16.3571 19.5051 16.2947 19.6065L10.9489 28.3583C10.7832 28.2893 10.6014 28.2504 10.4099 28.2504C9.63751 28.2504 9.01138 28.8784 9.01138 29.6531C9.01138 30.4279 9.63751 31.0558 10.4099 31.0558C10.8768 31.0558 11.2889 30.826 11.5428 30.4732L19.2736 34.4169ZM19.2671 35.8596L12.0204 39.9112C11.9172 39.9695 11.8795 40.1011 11.9376 40.2047C11.9774 40.2759 12.0506 40.3158 12.1259 40.3158C12.1614 40.3158 12.1969 40.3072 12.2302 40.2889L19.4769 36.2372C19.5802 36.1789 19.6178 36.0473 19.5598 35.9437C19.5017 35.8391 19.3704 35.8024 19.2671 35.8596ZM39.2741 33.011C39.4849 33.1383 39.7313 33.2138 39.996 33.2138C40.7684 33.2138 41.3945 32.5859 41.3945 31.8111C41.3945 31.5824 41.3386 31.3666 41.2417 31.1756L48.0183 26.2748C48.1151 26.2046 48.1367 26.0698 48.0667 25.9737C47.9968 25.8766 47.8623 25.8551 47.7666 25.9252L40.9911 30.826C40.7372 30.5681 40.3854 30.4084 39.996 30.4084C39.8884 30.4084 39.784 30.4214 39.6829 30.4451L37.8077 25.7407C37.7636 25.6295 37.6388 25.5767 37.528 25.6198C37.4172 25.6641 37.3634 25.7892 37.4075 25.9004L39.2827 30.6048C38.8728 30.8498 38.5963 31.2965 38.5963 31.8101C38.5963 31.8198 38.5974 31.8295 38.5974 31.8392L25.3788 34.1882C25.2616 34.2087 25.1841 34.3209 25.2046 34.4385C25.2229 34.5432 25.3143 34.6165 25.4165 34.6165C25.4294 34.6165 25.4412 34.6155 25.4542 34.6133L38.6727 32.2643C38.7319 32.4391 38.8244 32.5977 38.9438 32.7326L26.8527 47.2096C26.5429 47.0164 26.1749 46.956 25.8275 47.0294L22.8754 39.0739C22.8335 38.9617 22.7097 38.9056 22.5989 38.9466C22.4871 38.9876 22.4311 39.1127 22.472 39.2239L25.4251 47.1815C25.3186 47.242 25.2175 47.3164 25.1271 47.4081C25.0851 47.4502 25.0475 47.4955 25.0109 47.5419L12.3884 42.298C12.1689 42.2062 11.9172 42.3109 11.8257 42.5321C11.7343 42.7522 11.8386 43.0047 12.0581 43.0964L24.7183 48.3555C24.7065 48.7299 24.8409 49.1075 25.126 49.3924C25.6725 49.9405 26.5579 49.9405 27.1034 49.3924C27.623 48.8712 27.6467 48.0415 27.1765 47.4901L39.2741 33.011ZM35.1537 20.2647C35.1849 20.2647 35.2172 20.2583 35.2473 20.2432C35.3538 20.1914 35.399 20.0619 35.3474 19.9551L27.6219 3.95454C27.5703 3.84772 27.4412 3.8024 27.3347 3.8542C27.2282 3.90599 27.183 4.03547 27.2346 4.14229L34.9611 20.1428C34.9977 20.2205 35.0741 20.2647 35.1537 20.2647ZM22.8851 17.2425C22.7721 17.2036 22.6506 17.2651 22.6118 17.3773C22.5742 17.4906 22.6344 17.6126 22.7463 17.6514L33.9004 21.4409C33.923 21.4484 33.9466 21.4527 33.9692 21.4527C34.0585 21.4527 34.1424 21.3955 34.1726 21.306C34.2102 21.1927 34.15 21.0708 34.0381 21.0319L22.8851 17.2425ZM9.8645 40.1529L10.4056 32.6894C10.4142 32.5708 10.325 32.4672 10.2066 32.4585C10.0883 32.4521 9.98499 32.5395 9.97639 32.6582L9.43525 40.1216C9.41481 40.1238 9.39437 40.1259 9.37393 40.1281L3.80766 26.6514C3.71622 26.4312 3.46448 26.3266 3.24501 26.4172C3.02554 26.5078 2.92119 26.7614 3.01263 26.9815L8.59397 40.496C8.32178 40.7518 8.15073 41.1143 8.15073 41.5189C8.15073 42.2936 8.77685 42.9216 9.54929 42.9216C10.3217 42.9216 10.9479 42.2936 10.9479 41.5189C10.9479 40.8532 10.4852 40.2964 9.8645 40.1529ZM25.3003 2.53889L20.4452 12.1215C20.3914 12.2283 20.4333 12.3578 20.5398 12.4118C20.571 12.4279 20.6044 12.4355 20.6366 12.4355C20.7152 12.4355 20.7905 12.3923 20.8281 12.3179L25.6833 2.73527C26.1674 2.89388 26.7215 2.78059 27.1055 2.39431C27.1475 2.35222 27.1851 2.30691 27.2217 2.26051L41.2988 8.1087C41.2912 8.16697 41.2869 8.22523 41.2869 8.28566C41.2869 8.7615 41.5236 9.18123 41.8851 9.4348L37.755 17.8801C37.7023 17.987 37.7464 18.1164 37.854 18.1693C37.8841 18.1844 37.9164 18.1909 37.9487 18.1909C38.0283 18.1909 38.1047 18.1467 38.1423 18.07L42.2724 9.6247C42.4036 9.6657 42.5424 9.68728 42.6866 9.68728C43.459 9.68728 44.0851 9.0593 44.0851 8.28458C44.0851 7.50985 43.459 6.88188 42.6866 6.88188C42.2842 6.88188 41.9227 7.05344 41.6667 7.32643L27.5133 1.44802C27.5251 1.07361 27.3906 0.695956 27.1055 0.4111C26.559 -0.137033 25.6736 -0.137033 25.1282 0.4111C24.5817 0.959233 24.5817 1.84725 25.1282 2.39431C25.182 2.44826 25.2401 2.49573 25.3003 2.53889Z" fill="#A5A5A5"/>
<path d="M51.4466 22.9967C50.9388 22.4874 50.2643 22.2068 49.5467 22.2068C48.8291 22.2068 48.1546 22.4874 47.6468 22.9967C47.4327 23.2114 47.2606 23.4553 47.1315 23.7196L38.7218 21.8022C38.7025 21.1117 38.426 20.4653 37.9365 19.9755C37.4287 19.4662 36.7542 19.1856 36.0366 19.1856C35.319 19.1856 34.6445 19.4662 34.1367 19.9755C33.6289 20.4848 33.3492 21.1613 33.3492 21.881C33.3492 22.3147 33.4514 22.7323 33.6429 23.1067L22.661 32.8976C22.2877 32.6516 21.8595 32.5038 21.4087 32.4682L19.5218 18.6267C19.9295 18.4983 20.3039 18.2728 20.6148 17.961C21.1226 17.4517 21.4012 16.7751 21.4012 16.0555C21.4012 15.3358 21.1215 14.6592 20.6148 14.1499C20.107 13.6406 19.4325 13.3601 18.7149 13.3601C17.9973 13.3601 17.3228 13.6406 16.815 14.1499C16.3072 14.6592 16.0286 15.3358 16.0286 16.0555C16.0286 16.2022 16.0404 16.3457 16.063 16.4881L4.60557 23.0172C4.59911 23.0107 4.59266 23.0031 4.5862 22.9967C4.07842 22.4874 3.40388 22.2068 2.68631 22.2068C1.96874 22.2068 1.29421 22.4874 0.786421 22.9967C0.279712 23.506 0 24.1825 0 24.9022C0 25.6219 0.279712 26.2984 0.786421 26.8077C1.29421 27.317 1.96874 27.5975 2.68631 27.5975C3.40388 27.5975 4.07842 27.317 4.5862 26.8077C5.09399 26.2984 5.37262 25.6219 5.37262 24.9022C5.37262 24.6378 5.33497 24.3789 5.26181 24.1318L16.5762 17.6837C16.6493 17.7797 16.7289 17.8725 16.8161 17.9599C17.2077 18.3526 17.6982 18.6084 18.2308 18.7055L20.135 32.6742C19.8241 32.808 19.5379 33.0001 19.2904 33.2483C18.7827 33.7576 18.504 34.4341 18.504 35.1538C18.504 35.8735 18.7837 36.55 19.2904 37.0593C19.7982 37.5686 20.4728 37.8491 21.1903 37.8491C21.9079 37.8491 22.5824 37.5686 23.0902 37.0593C23.598 36.55 23.8767 35.8735 23.8767 35.1538C23.8767 34.6887 23.7594 34.242 23.5399 33.8471L34.4896 24.0854C34.9393 24.4037 35.4739 24.5763 36.0355 24.5763C36.7531 24.5763 37.4276 24.2958 37.9354 23.7865C38.1473 23.5739 38.3195 23.3312 38.4486 23.069L46.8615 24.9864C46.8819 25.6748 47.1584 26.3189 47.6468 26.8077C48.1546 27.317 48.8291 27.5975 49.5467 27.5975C50.2643 27.5975 50.9388 27.317 51.4466 26.8077C51.9544 26.2984 52.2341 25.6219 52.2341 24.9022C52.2341 24.1825 51.9544 23.506 51.4466 22.9967ZM3.67391 25.8916C3.41034 26.156 3.05962 26.3017 2.68739 26.3017C2.31408 26.3017 1.96444 26.156 1.70086 25.8916C1.43729 25.6273 1.29205 25.2755 1.29205 24.9022C1.29205 24.5289 1.43729 24.1771 1.70086 23.9127C1.96444 23.6484 2.31516 23.5027 2.68739 23.5027C3.0607 23.5027 3.41034 23.6484 3.67391 23.9127C3.93749 24.1771 4.08272 24.5289 4.08272 24.9022C4.08272 25.2755 3.93749 25.6273 3.67391 25.8916ZM17.3206 16.0544C17.3206 15.68 17.4659 15.3293 17.7294 15.0649C17.993 14.8006 18.3437 14.6549 18.716 14.6549C19.0893 14.6549 19.4389 14.8006 19.7025 15.0649C19.9661 15.3293 20.1113 15.681 20.1113 16.0544C20.1113 16.4277 19.9661 16.7795 19.7025 17.0438C19.4389 17.3082 19.0882 17.4538 18.716 17.4538C18.3427 17.4538 17.993 17.3082 17.7294 17.0438C17.4659 16.7795 17.3206 16.4277 17.3206 16.0544ZM22.1779 36.1422C21.9144 36.4065 21.5636 36.5522 21.1914 36.5522C20.8181 36.5522 20.4685 36.4065 20.2049 36.1422C19.9413 35.8778 19.7961 35.526 19.7961 35.1527C19.7961 34.7794 19.9413 34.4276 20.2049 34.1633C20.4685 33.8989 20.8192 33.7532 21.1914 33.7532C21.5647 33.7532 21.9144 33.8989 22.1779 34.1633C22.4415 34.4276 22.5867 34.7794 22.5867 35.1527C22.5867 35.526 22.4415 35.8778 22.1779 36.1422ZM37.0242 22.8704C36.7606 23.1348 36.4099 23.2805 36.0377 23.2805C35.6654 23.2805 35.3147 23.1348 35.0511 22.8704C34.7876 22.6061 34.6423 22.2543 34.6423 21.881C34.6423 21.5077 34.7876 21.1559 35.0511 20.8915C35.3147 20.6272 35.6654 20.4815 36.0377 20.4815C36.4099 20.4815 36.7606 20.6272 37.0242 20.8915C37.2878 21.1559 37.433 21.5077 37.433 21.881C37.433 22.2543 37.2878 22.6061 37.0242 22.8704ZM50.5343 25.8916C50.2707 26.156 49.92 26.3017 49.5478 26.3017C49.1745 26.3017 48.8248 26.156 48.5602 25.8916C48.2966 25.6273 48.1514 25.2755 48.1514 24.9022C48.1514 24.5289 48.2966 24.1771 48.5602 23.9127C48.8237 23.6484 49.1745 23.5027 49.5478 23.5027C49.9211 23.5027 50.2707 23.6484 50.5343 23.9127C50.7979 24.1771 50.9431 24.5289 50.9431 24.9022C50.9431 25.2755 50.7979 25.6273 50.5343 25.8916Z" fill="url(#paint0_linear)"/>
</g>
<path d="M73.2798 14.0302C75.0209 14.0302 76.59 14.3441 77.9869 14.9717C79.4041 15.579 80.5379 16.399 81.3882 17.4315C83.1293 19.5169 83.9999 21.916 83.9999 24.6289C83.9999 26.7952 83.433 28.7692 82.2993 30.5508C81.0643 32.5146 79.3535 33.8711 77.167 34.6202C75.9725 35.0251 74.6767 35.2276 73.2798 35.2276H65.8091V14.0302H73.2798ZM72.9457 32.6462C75.4562 32.6462 77.4706 31.9073 78.9891 30.4293C80.5075 28.9514 81.2667 27.0179 81.2667 24.6289C81.2667 22.2399 80.5075 20.3064 78.9891 18.8285C77.4706 17.3506 75.4562 16.6116 72.9457 16.6116H68.5726V32.6462H72.9457Z" fill="url(#paint1_linear)"/>
<path d="M92.8675 14.0302V35.2276H90.104V14.0302H92.8675Z" fill="url(#paint2_linear)"/>
<path d="M101.831 19.7396C101.831 20.5494 102.145 21.2175 102.772 21.7439C103.42 22.2703 104.22 22.6448 105.172 22.8675C106.123 23.07 107.156 23.3332 108.269 23.6571C109.403 23.9608 110.446 24.2949 111.397 24.6593C112.349 25.0237 113.138 25.6311 113.766 26.4814C114.414 27.3115 114.738 28.3541 114.738 29.6094C114.738 31.3505 114.019 32.7778 112.582 33.8913C111.164 34.9846 109.18 35.5313 106.629 35.5313C104.078 35.5313 101.649 34.9846 99.3408 33.8913V31.1885H99.4927C101.598 32.3628 103.997 32.9499 106.69 32.9499C110.233 32.9499 112.005 31.7757 112.005 29.4272C112.005 28.2731 111.144 27.4228 109.423 26.8762C108.674 26.6332 107.844 26.4004 106.933 26.1777C106.022 25.955 105.101 25.6918 104.169 25.3881C103.258 25.0844 102.418 24.7301 101.649 24.3252C100.9 23.9001 100.282 23.3231 99.7963 22.5942C99.3307 21.8451 99.0979 20.9644 99.0979 19.9521C99.0979 18.1908 99.7862 16.7128 101.163 15.5183C102.56 14.3238 104.433 13.7266 106.781 13.7266C109.15 13.7266 111.286 14.091 113.189 14.8198V17.4012H112.976C111.073 16.6318 109.241 16.2472 107.48 16.2472C105.738 16.2472 104.362 16.561 103.349 17.1886C102.337 17.796 101.831 18.6463 101.831 19.7396Z" fill="url(#paint3_linear)"/>
<path d="M122.063 19.7396C122.063 20.5494 122.377 21.2175 123.004 21.7439C123.652 22.2703 124.452 22.6448 125.404 22.8675C126.355 23.07 127.388 23.3332 128.501 23.6571C129.635 23.9608 130.678 24.2949 131.629 24.6593C132.581 25.0237 133.37 25.6311 133.998 26.4814C134.646 27.3115 134.97 28.3541 134.97 29.6094C134.97 31.3505 134.251 32.7778 132.813 33.8913C131.396 34.9846 129.412 35.5313 126.861 35.5313C124.31 35.5313 121.881 34.9846 119.573 33.8913V31.1885H119.725C121.83 32.3628 124.229 32.9499 126.922 32.9499C130.465 32.9499 132.236 31.7757 132.236 29.4272C132.236 28.2731 131.376 27.4228 129.655 26.8762C128.906 26.6332 128.076 26.4004 127.165 26.1777C126.254 25.955 125.333 25.6918 124.401 25.3881C123.49 25.0844 122.65 24.7301 121.881 24.3252C121.132 23.9001 120.514 23.3231 120.028 22.5942C119.563 21.8451 119.33 20.9644 119.33 19.9521C119.33 18.1908 120.018 16.7128 121.395 15.5183C122.792 14.3238 124.665 13.7266 127.013 13.7266C129.382 13.7266 131.518 14.091 133.421 14.8198V17.4012H133.208C131.305 16.6318 129.473 16.2472 127.712 16.2472C125.97 16.2472 124.594 16.561 123.581 17.1886C122.569 17.796 122.063 18.6463 122.063 19.7396Z" fill="url(#paint4_linear)"/>
<path d="M166.663 18.4337C164.578 17.057 162.28 16.3686 159.769 16.3686C157.259 16.3686 155.295 17.138 153.878 18.6767C152.46 20.2153 151.752 22.1994 151.752 24.6289C151.752 27.0584 152.46 29.0425 153.878 30.5812C155.295 32.1198 157.259 32.8892 159.769 32.8892C162.28 32.8892 164.578 32.2008 166.663 30.8241H166.815V33.5573C164.628 34.8733 162.229 35.5313 159.617 35.5313C156.52 35.5313 153.969 34.5493 151.964 32.5855C149.98 30.6014 148.988 27.9492 148.988 24.6289C148.988 21.3086 149.98 18.6665 151.964 16.7027C153.969 14.7186 156.52 13.7266 159.617 13.7266C162.229 13.7266 164.628 14.3846 166.815 15.7005V18.4337H166.663Z" fill="#7D7D7D"/>
<path d="M174.657 16.7634C176.58 14.7389 179.142 13.7266 182.34 13.7266C185.539 13.7266 188.1 14.7389 190.024 16.7634C191.947 18.788 192.939 21.4098 193 24.6289C192.939 27.848 191.947 30.4698 190.024 32.4944C188.1 34.519 185.539 35.5313 182.34 35.5313C179.142 35.5313 176.58 34.519 174.657 32.4944C172.734 30.4698 171.742 27.848 171.681 24.6289C171.742 21.4098 172.734 18.788 174.657 16.7634ZM174.445 24.6289C174.445 27.0382 175.143 29.0324 176.54 30.6115C177.957 32.1705 179.881 32.9499 182.31 32.9499C184.76 32.9499 186.693 32.1705 188.11 30.6115C189.528 29.0324 190.236 27.0382 190.236 24.6289C190.236 22.2197 189.528 20.2356 188.11 18.6767C186.693 17.0975 184.76 16.3079 182.31 16.3079C179.881 16.3079 177.957 17.0975 176.54 18.6767C175.143 20.2356 174.445 22.2197 174.445 24.6289Z" fill="#7D7D7D"/>
<path d="M138.785 23.6875H144.858V26.117H138.785V23.6875Z" fill="#7D7D7D"/>
<defs>
<linearGradient id="paint0_linear" x1="5.48458" y1="17.5232" x2="27.4223" y2="65.8883" gradientUnits="userSpaceOnUse">
<stop stop-color="#1B3260"/>
<stop offset="1" stop-color="#9F547E" stop-opacity="0.97"/>
</linearGradient>
<linearGradient id="paint1_linear" x1="73.0709" y1="17.4334" x2="87.5607" y2="64.9372" gradientUnits="userSpaceOnUse">
<stop stop-color="#1B3260"/>
<stop offset="1" stop-color="#9F547E" stop-opacity="0.97"/>
</linearGradient>
<linearGradient id="paint2_linear" x1="73.0709" y1="17.4334" x2="87.5607" y2="64.9372" gradientUnits="userSpaceOnUse">
<stop stop-color="#1B3260"/>
<stop offset="1" stop-color="#9F547E" stop-opacity="0.97"/>
</linearGradient>
<linearGradient id="paint3_linear" x1="73.0709" y1="17.4334" x2="87.5607" y2="64.9372" gradientUnits="userSpaceOnUse">
<stop stop-color="#1B3260"/>
<stop offset="1" stop-color="#9F547E" stop-opacity="0.97"/>
</linearGradient>
<linearGradient id="paint4_linear" x1="73.0709" y1="17.4334" x2="87.5607" y2="64.9372" gradientUnits="userSpaceOnUse">
<stop stop-color="#1B3260"/>
<stop offset="1" stop-color="#9F547E" stop-opacity="0.97"/>
</linearGradient>
<clipPath id="clip0">
<rect width="52.2341" height="49.8046" fill="white"/>
</clipPath>
</defs>
<div xmlns="" id="divScriptsUsed" style="display: none"/><script xmlns="" id="globalVarsDetection" src="moz-extension://db396769-7962-9142-a878-e00e725e1712/js/wrs_env.js"/></svg>